<svg width="512" height="512" xmlns="http://www.w3.org/2000/svg">
 <g>
  <title>Layer 1</title>
  <g id="svg_17">
   <path stroke-width="43" id="svg_15" d="m45.5,201c138,2 126,144 126,144c0,0 71,-88 84,-87c13,1 89,90 89,90c0,0 -19,-147 137,-150" opacity="NaN" stroke="url(#svg_1)" fill="none"/>
   <path transform="rotate(-180 248.5 239)" stroke-width="43" id="svg_16" d="m30.5,167c138,2 126,144 126,144c0,0 71,-88 84,-87c13,1 89,90 89,90c0,0 -19,-147 137,-150" opacity="NaN" stroke="url(#svg_1)" fill="none"/>
  </g>
 </g>
 <defs>
  <linearGradient y2="0" x2="1" y1="0" x1="0" id="svg_1">
   <stop offset="0" stop-opacity="0.99609" stop-color="#6366f1"/>
   <stop offset="1" stop-opacity="0.99609" stop-color="#a855f7"/>
  </linearGradient>
 </defs>
</svg>